<mxfile host="Electron" modified="2023-12-19T07:58:41.730Z" agent="Mozilla/5.0 (X11; Linux x86_64) AppleWebKit/537.36 (KHTML, like Gecko) draw.io/21.2.8 Chrome/112.0.5615.165 Electron/24.2.0 Safari/537.36" etag="6t-t3wMqBaS7AePSnDMz" version="21.2.8" type="device" pages="5">
  <diagram name="landing" id="ZufQHyuBqnUW8ah8zgqy">
    <mxGraphModel dx="1674" dy="843" grid="1" gridSize="10" guides="1" tooltips="1" connect="1" arrows="1" fold="1" page="1" pageScale="1" pageWidth="1700" pageHeight="1100" math="0" shadow="0">
      <root>
        <mxCell id="0" />
        <mxCell id="1" parent="0" />
        <mxCell id="J57_a6hfrUyG-NmPmS0K-1" value="" style="group" vertex="1" connectable="0" parent="1">
          <mxGeometry x="220" y="135" width="1140" height="590" as="geometry" />
        </mxCell>
        <mxCell id="Tn9XG7na91zAp4Cds3nb-1" value="cro" style="swimlane;startSize=0;" vertex="1" parent="J57_a6hfrUyG-NmPmS0K-1">
          <mxGeometry width="1140" height="590" as="geometry" />
        </mxCell>
        <mxCell id="Tn9XG7na91zAp4Cds3nb-7" value="Add Players" style="text;strokeColor=none;fillColor=#97D077;align=left;verticalAlign=middle;spacingLeft=4;spacingRight=4;overflow=hidden;points=[[0,0.5],[1,0.5]];portConstraint=eastwest;rotatable=0;whiteSpace=wrap;html=1;" vertex="1" parent="Tn9XG7na91zAp4Cds3nb-1">
          <mxGeometry x="255" y="55" width="120" height="30" as="geometry" />
        </mxCell>
        <mxCell id="Tn9XG7na91zAp4Cds3nb-8" value="Add Questions" style="text;strokeColor=none;fillColor=#97D077;align=left;verticalAlign=middle;spacingLeft=4;spacingRight=4;overflow=hidden;points=[[0,0.5],[1,0.5]];portConstraint=eastwest;rotatable=0;whiteSpace=wrap;html=1;" vertex="1" parent="Tn9XG7na91zAp4Cds3nb-1">
          <mxGeometry x="425" y="55" width="120" height="30" as="geometry" />
        </mxCell>
        <mxCell id="Tn9XG7na91zAp4Cds3nb-9" value="Multi-Player" style="text;strokeColor=none;fillColor=#97D077;align=left;verticalAlign=middle;spacingLeft=4;spacingRight=4;overflow=hidden;points=[[0,0.5],[1,0.5]];portConstraint=eastwest;rotatable=0;whiteSpace=wrap;html=1;" vertex="1" parent="Tn9XG7na91zAp4Cds3nb-1">
          <mxGeometry x="765" y="55" width="120" height="30" as="geometry" />
        </mxCell>
        <mxCell id="Tn9XG7na91zAp4Cds3nb-10" value="Single-Player" style="text;strokeColor=none;fillColor=#97D077;align=left;verticalAlign=middle;spacingLeft=4;spacingRight=4;overflow=hidden;points=[[0,0.5],[1,0.5]];portConstraint=eastwest;rotatable=0;whiteSpace=wrap;html=1;" vertex="1" parent="Tn9XG7na91zAp4Cds3nb-1">
          <mxGeometry x="595" y="55" width="120" height="30" as="geometry" />
        </mxCell>
        <mxCell id="Tn9XG7na91zAp4Cds3nb-2" value="Image" style="rounded=0;whiteSpace=wrap;html=1;" vertex="1" parent="J57_a6hfrUyG-NmPmS0K-1">
          <mxGeometry x="150" y="125" width="840" height="340" as="geometry" />
        </mxCell>
      </root>
    </mxGraphModel>
  </diagram>
  <diagram id="ZRi1T5l3RZLVlwrs3VYh" name="Add Players">
    <mxGraphModel dx="1674" dy="843" grid="1" gridSize="10" guides="1" tooltips="1" connect="1" arrows="1" fold="1" page="1" pageScale="1" pageWidth="1700" pageHeight="1100" math="0" shadow="0">
      <root>
        <mxCell id="0" />
        <mxCell id="1" parent="0" />
        <mxCell id="7VpVRzWqxunkibTRGaAr-1" value="" style="group" vertex="1" connectable="0" parent="1">
          <mxGeometry x="370" y="200" width="1140" height="590" as="geometry" />
        </mxCell>
        <mxCell id="7VpVRzWqxunkibTRGaAr-2" value="cro" style="swimlane;startSize=0;" vertex="1" parent="7VpVRzWqxunkibTRGaAr-1">
          <mxGeometry x="-20" y="20" width="1140" height="590" as="geometry" />
        </mxCell>
        <mxCell id="7VpVRzWqxunkibTRGaAr-3" value="Add Players" style="text;strokeColor=none;fillColor=#97D077;align=left;verticalAlign=middle;spacingLeft=4;spacingRight=4;overflow=hidden;points=[[0,0.5],[1,0.5]];portConstraint=eastwest;rotatable=0;whiteSpace=wrap;html=1;" vertex="1" parent="7VpVRzWqxunkibTRGaAr-2">
          <mxGeometry x="255" y="55" width="120" height="30" as="geometry" />
        </mxCell>
        <mxCell id="7VpVRzWqxunkibTRGaAr-4" value="Add Questions" style="text;strokeColor=none;fillColor=#97D077;align=left;verticalAlign=middle;spacingLeft=4;spacingRight=4;overflow=hidden;points=[[0,0.5],[1,0.5]];portConstraint=eastwest;rotatable=0;whiteSpace=wrap;html=1;" vertex="1" parent="7VpVRzWqxunkibTRGaAr-2">
          <mxGeometry x="425" y="55" width="120" height="30" as="geometry" />
        </mxCell>
        <mxCell id="7VpVRzWqxunkibTRGaAr-5" value="Multi-Player" style="text;strokeColor=none;fillColor=#97D077;align=left;verticalAlign=middle;spacingLeft=4;spacingRight=4;overflow=hidden;points=[[0,0.5],[1,0.5]];portConstraint=eastwest;rotatable=0;whiteSpace=wrap;html=1;" vertex="1" parent="7VpVRzWqxunkibTRGaAr-2">
          <mxGeometry x="765" y="55" width="120" height="30" as="geometry" />
        </mxCell>
        <mxCell id="7VpVRzWqxunkibTRGaAr-6" value="Single-Player" style="text;strokeColor=none;fillColor=#97D077;align=left;verticalAlign=middle;spacingLeft=4;spacingRight=4;overflow=hidden;points=[[0,0.5],[1,0.5]];portConstraint=eastwest;rotatable=0;whiteSpace=wrap;html=1;" vertex="1" parent="7VpVRzWqxunkibTRGaAr-2">
          <mxGeometry x="595" y="55" width="120" height="30" as="geometry" />
        </mxCell>
        <mxCell id="7VpVRzWqxunkibTRGaAr-8" value="List of Added Players" style="swimlane;fontStyle=0;childLayout=stackLayout;horizontal=1;startSize=30;horizontalStack=0;resizeParent=1;resizeParentMax=0;resizeLast=0;collapsible=1;marginBottom=0;whiteSpace=wrap;html=1;" vertex="1" parent="7VpVRzWqxunkibTRGaAr-2">
          <mxGeometry x="730" y="180" width="300" height="120" as="geometry" />
        </mxCell>
        <mxCell id="7VpVRzWqxunkibTRGaAr-9" value="Item 1" style="text;strokeColor=none;fillColor=none;align=left;verticalAlign=middle;spacingLeft=4;spacingRight=4;overflow=hidden;points=[[0,0.5],[1,0.5]];portConstraint=eastwest;rotatable=0;whiteSpace=wrap;html=1;" vertex="1" parent="7VpVRzWqxunkibTRGaAr-8">
          <mxGeometry y="30" width="300" height="30" as="geometry" />
        </mxCell>
        <mxCell id="7VpVRzWqxunkibTRGaAr-10" value="Item 2" style="text;strokeColor=none;fillColor=none;align=left;verticalAlign=middle;spacingLeft=4;spacingRight=4;overflow=hidden;points=[[0,0.5],[1,0.5]];portConstraint=eastwest;rotatable=0;whiteSpace=wrap;html=1;" vertex="1" parent="7VpVRzWqxunkibTRGaAr-8">
          <mxGeometry y="60" width="300" height="30" as="geometry" />
        </mxCell>
        <mxCell id="7VpVRzWqxunkibTRGaAr-11" value="Item 3" style="text;strokeColor=none;fillColor=none;align=left;verticalAlign=middle;spacingLeft=4;spacingRight=4;overflow=hidden;points=[[0,0.5],[1,0.5]];portConstraint=eastwest;rotatable=0;whiteSpace=wrap;html=1;" vertex="1" parent="7VpVRzWqxunkibTRGaAr-8">
          <mxGeometry y="90" width="300" height="30" as="geometry" />
        </mxCell>
        <mxCell id="7VpVRzWqxunkibTRGaAr-12" value="" style="swimlane;startSize=0;" vertex="1" parent="7VpVRzWqxunkibTRGaAr-2">
          <mxGeometry x="90" y="150" width="280" height="290" as="geometry" />
        </mxCell>
        <mxCell id="7VpVRzWqxunkibTRGaAr-13" value="&lt;h1&gt;Add Player:&lt;/h1&gt;" style="text;html=1;strokeColor=none;fillColor=none;spacing=5;spacingTop=-20;whiteSpace=wrap;overflow=hidden;rounded=0;" vertex="1" parent="7VpVRzWqxunkibTRGaAr-12">
          <mxGeometry width="190" height="40" as="geometry" />
        </mxCell>
        <mxCell id="7VpVRzWqxunkibTRGaAr-14" value="" style="rounded=0;whiteSpace=wrap;html=1;" vertex="1" parent="7VpVRzWqxunkibTRGaAr-12">
          <mxGeometry x="100" y="70" width="150" height="40" as="geometry" />
        </mxCell>
        <mxCell id="7VpVRzWqxunkibTRGaAr-15" value="Name:" style="text;html=1;strokeColor=none;fillColor=none;align=center;verticalAlign=middle;whiteSpace=wrap;rounded=0;" vertex="1" parent="7VpVRzWqxunkibTRGaAr-12">
          <mxGeometry x="30" y="75" width="60" height="30" as="geometry" />
        </mxCell>
        <mxCell id="7VpVRzWqxunkibTRGaAr-16" value="Add" style="labelPosition=center;verticalLabelPosition=middle;align=center;html=1;shape=mxgraph.basic.shaded_button;dx=10;fillColor=#E6E6E6;strokeColor=none;whiteSpace=wrap;" vertex="1" parent="7VpVRzWqxunkibTRGaAr-12">
          <mxGeometry x="160" y="220" width="100" height="60" as="geometry" />
        </mxCell>
        <mxCell id="7VpVRzWqxunkibTRGaAr-17" value="Reset" style="labelPosition=center;verticalLabelPosition=middle;align=center;html=1;shape=mxgraph.basic.shaded_button;dx=10;fillColor=#E6E6E6;strokeColor=none;whiteSpace=wrap;" vertex="1" parent="7VpVRzWqxunkibTRGaAr-12">
          <mxGeometry x="20" y="220" width="100" height="60" as="geometry" />
        </mxCell>
      </root>
    </mxGraphModel>
  </diagram>
  <diagram id="HS_MAe9q_LRH95nanA72" name="Add Questions">
    <mxGraphModel dx="1674" dy="843" grid="1" gridSize="10" guides="1" tooltips="1" connect="1" arrows="1" fold="1" page="1" pageScale="1" pageWidth="1700" pageHeight="1100" math="0" shadow="0">
      <root>
        <mxCell id="0" />
        <mxCell id="1" parent="0" />
        <mxCell id="cvmdCMTfBFc-h4ut5DlH-1" value="cro" style="swimlane;startSize=0;" vertex="1" parent="1">
          <mxGeometry x="500" y="210" width="1140" height="590" as="geometry" />
        </mxCell>
        <mxCell id="cvmdCMTfBFc-h4ut5DlH-2" value="Add Players" style="text;strokeColor=none;fillColor=#97D077;align=left;verticalAlign=middle;spacingLeft=4;spacingRight=4;overflow=hidden;points=[[0,0.5],[1,0.5]];portConstraint=eastwest;rotatable=0;whiteSpace=wrap;html=1;" vertex="1" parent="cvmdCMTfBFc-h4ut5DlH-1">
          <mxGeometry x="255" y="55" width="120" height="30" as="geometry" />
        </mxCell>
        <mxCell id="cvmdCMTfBFc-h4ut5DlH-3" value="Add Questions" style="text;strokeColor=none;fillColor=#97D077;align=left;verticalAlign=middle;spacingLeft=4;spacingRight=4;overflow=hidden;points=[[0,0.5],[1,0.5]];portConstraint=eastwest;rotatable=0;whiteSpace=wrap;html=1;" vertex="1" parent="cvmdCMTfBFc-h4ut5DlH-1">
          <mxGeometry x="425" y="55" width="120" height="30" as="geometry" />
        </mxCell>
        <mxCell id="cvmdCMTfBFc-h4ut5DlH-4" value="Multi-Player" style="text;strokeColor=none;fillColor=#97D077;align=left;verticalAlign=middle;spacingLeft=4;spacingRight=4;overflow=hidden;points=[[0,0.5],[1,0.5]];portConstraint=eastwest;rotatable=0;whiteSpace=wrap;html=1;" vertex="1" parent="cvmdCMTfBFc-h4ut5DlH-1">
          <mxGeometry x="765" y="55" width="120" height="30" as="geometry" />
        </mxCell>
        <mxCell id="cvmdCMTfBFc-h4ut5DlH-5" value="Single-Player" style="text;strokeColor=none;fillColor=#97D077;align=left;verticalAlign=middle;spacingLeft=4;spacingRight=4;overflow=hidden;points=[[0,0.5],[1,0.5]];portConstraint=eastwest;rotatable=0;whiteSpace=wrap;html=1;" vertex="1" parent="cvmdCMTfBFc-h4ut5DlH-1">
          <mxGeometry x="595" y="55" width="120" height="30" as="geometry" />
        </mxCell>
        <mxCell id="cvmdCMTfBFc-h4ut5DlH-6" value="List of Added Questions" style="swimlane;fontStyle=0;childLayout=stackLayout;horizontal=1;startSize=30;horizontalStack=0;resizeParent=1;resizeParentMax=0;resizeLast=0;collapsible=1;marginBottom=0;whiteSpace=wrap;html=1;" vertex="1" parent="cvmdCMTfBFc-h4ut5DlH-1">
          <mxGeometry x="730" y="180" width="300" height="120" as="geometry" />
        </mxCell>
        <mxCell id="cvmdCMTfBFc-h4ut5DlH-7" value="Item 1" style="text;strokeColor=none;fillColor=none;align=left;verticalAlign=middle;spacingLeft=4;spacingRight=4;overflow=hidden;points=[[0,0.5],[1,0.5]];portConstraint=eastwest;rotatable=0;whiteSpace=wrap;html=1;" vertex="1" parent="cvmdCMTfBFc-h4ut5DlH-6">
          <mxGeometry y="30" width="300" height="30" as="geometry" />
        </mxCell>
        <mxCell id="cvmdCMTfBFc-h4ut5DlH-8" value="Item 2" style="text;strokeColor=none;fillColor=none;align=left;verticalAlign=middle;spacingLeft=4;spacingRight=4;overflow=hidden;points=[[0,0.5],[1,0.5]];portConstraint=eastwest;rotatable=0;whiteSpace=wrap;html=1;" vertex="1" parent="cvmdCMTfBFc-h4ut5DlH-6">
          <mxGeometry y="60" width="300" height="30" as="geometry" />
        </mxCell>
        <mxCell id="cvmdCMTfBFc-h4ut5DlH-9" value="Item 3" style="text;strokeColor=none;fillColor=none;align=left;verticalAlign=middle;spacingLeft=4;spacingRight=4;overflow=hidden;points=[[0,0.5],[1,0.5]];portConstraint=eastwest;rotatable=0;whiteSpace=wrap;html=1;" vertex="1" parent="cvmdCMTfBFc-h4ut5DlH-6">
          <mxGeometry y="90" width="300" height="30" as="geometry" />
        </mxCell>
        <mxCell id="cvmdCMTfBFc-h4ut5DlH-10" value="" style="swimlane;startSize=0;" vertex="1" parent="cvmdCMTfBFc-h4ut5DlH-1">
          <mxGeometry x="90" y="150" width="280" height="290" as="geometry" />
        </mxCell>
        <mxCell id="cvmdCMTfBFc-h4ut5DlH-11" value="&lt;h1&gt;Add Question:&lt;/h1&gt;" style="text;html=1;strokeColor=none;fillColor=none;spacing=5;spacingTop=-20;whiteSpace=wrap;overflow=hidden;rounded=0;" vertex="1" parent="cvmdCMTfBFc-h4ut5DlH-10">
          <mxGeometry width="190" height="40" as="geometry" />
        </mxCell>
        <mxCell id="cvmdCMTfBFc-h4ut5DlH-12" value="" style="rounded=0;whiteSpace=wrap;html=1;" vertex="1" parent="cvmdCMTfBFc-h4ut5DlH-10">
          <mxGeometry x="110" y="70" width="150" height="40" as="geometry" />
        </mxCell>
        <mxCell id="cvmdCMTfBFc-h4ut5DlH-13" value="Statement:" style="text;html=1;strokeColor=none;fillColor=none;align=center;verticalAlign=middle;whiteSpace=wrap;rounded=0;" vertex="1" parent="cvmdCMTfBFc-h4ut5DlH-10">
          <mxGeometry x="30" y="75" width="60" height="30" as="geometry" />
        </mxCell>
        <mxCell id="cvmdCMTfBFc-h4ut5DlH-14" value="Add" style="labelPosition=center;verticalLabelPosition=middle;align=center;html=1;shape=mxgraph.basic.shaded_button;dx=10;fillColor=#E6E6E6;strokeColor=none;whiteSpace=wrap;" vertex="1" parent="cvmdCMTfBFc-h4ut5DlH-10">
          <mxGeometry x="160" y="220" width="100" height="60" as="geometry" />
        </mxCell>
        <mxCell id="cvmdCMTfBFc-h4ut5DlH-15" value="Reset" style="labelPosition=center;verticalLabelPosition=middle;align=center;html=1;shape=mxgraph.basic.shaded_button;dx=10;fillColor=#E6E6E6;strokeColor=none;whiteSpace=wrap;" vertex="1" parent="cvmdCMTfBFc-h4ut5DlH-10">
          <mxGeometry x="20" y="220" width="100" height="60" as="geometry" />
        </mxCell>
        <mxCell id="cvmdCMTfBFc-h4ut5DlH-16" value="" style="rounded=0;whiteSpace=wrap;html=1;" vertex="1" parent="cvmdCMTfBFc-h4ut5DlH-10">
          <mxGeometry x="110" y="140" width="150" height="40" as="geometry" />
        </mxCell>
        <mxCell id="cvmdCMTfBFc-h4ut5DlH-17" value="Answer:" style="text;html=1;strokeColor=none;fillColor=none;align=center;verticalAlign=middle;whiteSpace=wrap;rounded=0;" vertex="1" parent="cvmdCMTfBFc-h4ut5DlH-10">
          <mxGeometry x="30" y="145" width="60" height="30" as="geometry" />
        </mxCell>
      </root>
    </mxGraphModel>
  </diagram>
  <diagram id="ma72WQGLwJojAjD5HMqm" name="Single-Player">
    <mxGraphModel dx="1674" dy="843" grid="1" gridSize="10" guides="1" tooltips="1" connect="1" arrows="1" fold="1" page="1" pageScale="1" pageWidth="1700" pageHeight="1100" math="0" shadow="0">
      <root>
        <mxCell id="0" />
        <mxCell id="1" parent="0" />
        <mxCell id="8fd_vGGJgKO8s76FK2nB-1" value="cro" style="swimlane;startSize=0;" vertex="1" parent="1">
          <mxGeometry x="390" y="190" width="1140" height="590" as="geometry" />
        </mxCell>
        <mxCell id="8fd_vGGJgKO8s76FK2nB-2" value="Add Players" style="text;strokeColor=none;fillColor=#97D077;align=left;verticalAlign=middle;spacingLeft=4;spacingRight=4;overflow=hidden;points=[[0,0.5],[1,0.5]];portConstraint=eastwest;rotatable=0;whiteSpace=wrap;html=1;" vertex="1" parent="8fd_vGGJgKO8s76FK2nB-1">
          <mxGeometry x="255" y="55" width="120" height="30" as="geometry" />
        </mxCell>
        <mxCell id="8fd_vGGJgKO8s76FK2nB-3" value="Add Questions" style="text;strokeColor=none;fillColor=#97D077;align=left;verticalAlign=middle;spacingLeft=4;spacingRight=4;overflow=hidden;points=[[0,0.5],[1,0.5]];portConstraint=eastwest;rotatable=0;whiteSpace=wrap;html=1;" vertex="1" parent="8fd_vGGJgKO8s76FK2nB-1">
          <mxGeometry x="425" y="55" width="120" height="30" as="geometry" />
        </mxCell>
        <mxCell id="8fd_vGGJgKO8s76FK2nB-4" value="Multi-Player" style="text;strokeColor=none;fillColor=#97D077;align=left;verticalAlign=middle;spacingLeft=4;spacingRight=4;overflow=hidden;points=[[0,0.5],[1,0.5]];portConstraint=eastwest;rotatable=0;whiteSpace=wrap;html=1;" vertex="1" parent="8fd_vGGJgKO8s76FK2nB-1">
          <mxGeometry x="765" y="55" width="120" height="30" as="geometry" />
        </mxCell>
        <mxCell id="8fd_vGGJgKO8s76FK2nB-5" value="Single-Player" style="text;strokeColor=none;fillColor=#97D077;align=left;verticalAlign=middle;spacingLeft=4;spacingRight=4;overflow=hidden;points=[[0,0.5],[1,0.5]];portConstraint=eastwest;rotatable=0;whiteSpace=wrap;html=1;" vertex="1" parent="8fd_vGGJgKO8s76FK2nB-1">
          <mxGeometry x="595" y="55" width="120" height="30" as="geometry" />
        </mxCell>
        <mxCell id="8fd_vGGJgKO8s76FK2nB-18" value="" style="swimlane;startSize=0;" vertex="1" parent="8fd_vGGJgKO8s76FK2nB-1">
          <mxGeometry x="310" y="195" width="540" height="235" as="geometry">
            <mxRectangle x="1020" y="430" width="50" height="40" as="alternateBounds" />
          </mxGeometry>
        </mxCell>
        <mxCell id="8fd_vGGJgKO8s76FK2nB-19" value="&lt;h1&gt;Question:&lt;/h1&gt;&lt;p&gt;Lorem ipsum dolor sit amet, consectetur adipisicing elit, sed do eiusmod tempor incididunt ut labore et dolore magna aliqua.&lt;/p&gt;" style="text;html=1;strokeColor=none;fillColor=none;spacing=5;spacingTop=-20;whiteSpace=wrap;overflow=hidden;rounded=0;" vertex="1" parent="8fd_vGGJgKO8s76FK2nB-18">
          <mxGeometry x="5" y="5" width="385" height="120" as="geometry" />
        </mxCell>
        <mxCell id="8fd_vGGJgKO8s76FK2nB-20" value="" style="rounded=0;whiteSpace=wrap;html=1;" vertex="1" parent="8fd_vGGJgKO8s76FK2nB-18">
          <mxGeometry x="180" y="105" width="200" height="35" as="geometry" />
        </mxCell>
        <mxCell id="8fd_vGGJgKO8s76FK2nB-21" value="Answer:" style="text;html=1;strokeColor=none;fillColor=none;align=center;verticalAlign=middle;whiteSpace=wrap;rounded=0;" vertex="1" parent="8fd_vGGJgKO8s76FK2nB-18">
          <mxGeometry x="100" y="110" width="60" height="30" as="geometry" />
        </mxCell>
        <mxCell id="8fd_vGGJgKO8s76FK2nB-22" value="Next (or Finish if it&#39;s the last question)" style="labelPosition=center;verticalLabelPosition=middle;align=center;html=1;shape=mxgraph.basic.shaded_button;dx=10;fillColor=#E6E6E6;strokeColor=none;whiteSpace=wrap;" vertex="1" parent="8fd_vGGJgKO8s76FK2nB-18">
          <mxGeometry x="320" y="165" width="210" height="60" as="geometry" />
        </mxCell>
      </root>
    </mxGraphModel>
  </diagram>
  <diagram id="GVCNwumSP8C8EwzCGjKU" name="Multi-Player">
    <mxGraphModel dx="1434" dy="843" grid="1" gridSize="10" guides="1" tooltips="1" connect="1" arrows="1" fold="1" page="1" pageScale="1" pageWidth="1700" pageHeight="1100" math="0" shadow="0">
      <root>
        <mxCell id="0" />
        <mxCell id="1" parent="0" />
        <mxCell id="HvpaldRs8yfypN9Q8VGg-1" value="cro" style="swimlane;startSize=0;" vertex="1" parent="1">
          <mxGeometry x="390" y="190" width="1140" height="590" as="geometry" />
        </mxCell>
        <mxCell id="HvpaldRs8yfypN9Q8VGg-2" value="Add Players" style="text;strokeColor=none;fillColor=#97D077;align=left;verticalAlign=middle;spacingLeft=4;spacingRight=4;overflow=hidden;points=[[0,0.5],[1,0.5]];portConstraint=eastwest;rotatable=0;whiteSpace=wrap;html=1;" vertex="1" parent="HvpaldRs8yfypN9Q8VGg-1">
          <mxGeometry x="255" y="55" width="120" height="30" as="geometry" />
        </mxCell>
        <mxCell id="HvpaldRs8yfypN9Q8VGg-3" value="Add Questions" style="text;strokeColor=none;fillColor=#97D077;align=left;verticalAlign=middle;spacingLeft=4;spacingRight=4;overflow=hidden;points=[[0,0.5],[1,0.5]];portConstraint=eastwest;rotatable=0;whiteSpace=wrap;html=1;" vertex="1" parent="HvpaldRs8yfypN9Q8VGg-1">
          <mxGeometry x="425" y="55" width="120" height="30" as="geometry" />
        </mxCell>
        <mxCell id="HvpaldRs8yfypN9Q8VGg-4" value="Multi-Player" style="text;strokeColor=none;fillColor=#97D077;align=left;verticalAlign=middle;spacingLeft=4;spacingRight=4;overflow=hidden;points=[[0,0.5],[1,0.5]];portConstraint=eastwest;rotatable=0;whiteSpace=wrap;html=1;" vertex="1" parent="HvpaldRs8yfypN9Q8VGg-1">
          <mxGeometry x="765" y="55" width="120" height="30" as="geometry" />
        </mxCell>
        <mxCell id="HvpaldRs8yfypN9Q8VGg-5" value="Single-Player" style="text;strokeColor=none;fillColor=#97D077;align=left;verticalAlign=middle;spacingLeft=4;spacingRight=4;overflow=hidden;points=[[0,0.5],[1,0.5]];portConstraint=eastwest;rotatable=0;whiteSpace=wrap;html=1;" vertex="1" parent="HvpaldRs8yfypN9Q8VGg-1">
          <mxGeometry x="595" y="55" width="120" height="30" as="geometry" />
        </mxCell>
        <mxCell id="HvpaldRs8yfypN9Q8VGg-6" value="" style="swimlane;startSize=0;" vertex="1" parent="HvpaldRs8yfypN9Q8VGg-1">
          <mxGeometry x="310" y="195" width="540" height="235" as="geometry">
            <mxRectangle x="1020" y="430" width="50" height="40" as="alternateBounds" />
          </mxGeometry>
        </mxCell>
        <mxCell id="HvpaldRs8yfypN9Q8VGg-7" value="&lt;h1&gt;Question:&lt;/h1&gt;&lt;p&gt;Lorem ipsum dolor sit amet, consectetur adipisicing elit, sed do eiusmod tempor incididunt ut labore et dolore magna aliqua.&lt;/p&gt;" style="text;html=1;strokeColor=none;fillColor=none;spacing=5;spacingTop=-20;whiteSpace=wrap;overflow=hidden;rounded=0;" vertex="1" parent="HvpaldRs8yfypN9Q8VGg-6">
          <mxGeometry x="5" y="5" width="385" height="120" as="geometry" />
        </mxCell>
        <mxCell id="HvpaldRs8yfypN9Q8VGg-8" value="" style="rounded=0;whiteSpace=wrap;html=1;" vertex="1" parent="HvpaldRs8yfypN9Q8VGg-6">
          <mxGeometry x="180" y="105" width="200" height="35" as="geometry" />
        </mxCell>
        <mxCell id="HvpaldRs8yfypN9Q8VGg-9" value="Answer:" style="text;html=1;strokeColor=none;fillColor=none;align=center;verticalAlign=middle;whiteSpace=wrap;rounded=0;" vertex="1" parent="HvpaldRs8yfypN9Q8VGg-6">
          <mxGeometry x="100" y="110" width="60" height="30" as="geometry" />
        </mxCell>
        <mxCell id="HvpaldRs8yfypN9Q8VGg-10" value="Next (or Finish if it&#39;s the last question)" style="labelPosition=center;verticalLabelPosition=middle;align=center;html=1;shape=mxgraph.basic.shaded_button;dx=10;fillColor=#E6E6E6;strokeColor=none;whiteSpace=wrap;" vertex="1" parent="HvpaldRs8yfypN9Q8VGg-6">
          <mxGeometry x="320" y="165" width="210" height="60" as="geometry" />
        </mxCell>
        <mxCell id="HvpaldRs8yfypN9Q8VGg-11" value="" style="swimlane;startSize=0;" vertex="1" parent="HvpaldRs8yfypN9Q8VGg-1">
          <mxGeometry x="200" y="130" width="730" height="350" as="geometry" />
        </mxCell>
        <mxCell id="HvpaldRs8yfypN9Q8VGg-12" value="Player: &amp;lt;name of the player&amp;gt;" style="text;html=1;strokeColor=none;fillColor=none;align=center;verticalAlign=middle;whiteSpace=wrap;rounded=0;fontStyle=1;fontSize=20;" vertex="1" parent="HvpaldRs8yfypN9Q8VGg-11">
          <mxGeometry x="20" y="10" width="280" height="30" as="geometry" />
        </mxCell>
      </root>
    </mxGraphModel>
  </diagram>
</mxfile>
